<svg width="530" height="655" viewBox="0 0 530 655" fill="none" xmlns="http://www.w3.org/2000/svg">
<rect width="530" height="655" rx="24" fill="#DBEAFE"/>
<path d="M240 340L254.331 325.669C256.771 323.229 260.729 323.229 263.169 325.669L277.5 340M271.25 333.75L276.206 328.794C278.646 326.354 282.604 326.354 285.044 328.794L290 333.75M271.25 315H271.281M246.25 352.5H283.75C287.202 352.5 290 349.702 290 346.25V308.75C290 305.298 287.202 302.5 283.75 302.5H246.25C242.798 302.5 240 305.298 240 308.75V346.25C240 349.702 242.798 352.5 246.25 352.5Z" stroke="#94A3B8" stroke-width="3" stroke-linecap="round" stroke-linejoin="round"/>
</svg>
